<?xml version="1.0" encoding="utf-8"?>
<!-- Svg Vector Icons : http://www.onlinewebfonts.com/icon -->
<!DOCTYPE svg PUBLIC "-//W3C//DTD SVG 1.1//EN" "http://www.w3.org/Graphics/SVG/1.1/DTD/svg11.dtd">
<svg version="1.1" xmlns="http://www.w3.org/2000/svg" xmlns:xlink="http://www.w3.org/1999/xlink" x="0px" y="0px" viewBox="0 0 1000 1000" enable-background="new 0 0 1000 1000" xml:space="preserve">
<metadata> Svg Vector Icons : http://www.onlinewebfonts.com/icon </metadata>
<g><path d="M967.8,213.7c-4.9-3.9-10.7-7.3-17.1-10.2c-12.9-6.3-29.7-9.4-51.2-9.4c-0.2,0-0.4,0-0.6,0H270.3l-2.4-16.4c0-0.1,0-0.1,0-0.2l-3.9-25.5v-3.5c0-1.3-0.1-2.7-0.4-4c-1.5-8.1-2.6-13.7-3.4-17c-0.1-0.4-0.2-0.9-0.4-1.3l-5-16.2c-2-7.8-5.8-16-11.3-24.1c-0.8-1.2-1.8-2.4-2.8-3.4c-3.8-3.8-8-7.2-12.3-10.1c-3.4-2.2-7-4.5-10.8-6.8c-0.7-0.4-1.5-0.9-2.3-1.2c-10.7-4.9-23.6-7.2-39.6-7.2H79.5c-9.6,0-18.6,1.5-26.7,4.6c-7.4,2.8-14.4,6.5-20.8,11.1c-1,0.7-2,1.5-2.8,2.4C16.6,87.7,10,104,10,122.4c0,3.6,0.2,7.4,0.6,11.7c0.4,4.1,1.1,8.3,1.9,12.5c1.1,5.5,3,10.9,5.6,16.2c1.3,2.5,2.5,5.4,3.5,8.6c0.8,2.4,2,4.7,3.6,6.7c6,7.7,12.9,14.6,20.6,20.6c0.1,0.1,0.2,0.2,0.3,0.2c9.5,7.2,21.8,10.8,36.5,10.8h52.7l37.3,192.1l15.7,80.4l13.6,72.2c0,0.1,0,0.1,0,0.2l10.5,53.2l5.2,27.2c0,0.1,0,0.1,0,0.2c1.5,7.5,4,17.8,7.6,31.6c0.2,0.7,0.4,1.5,0.7,2.2c2.4,6.3,5,12.3,7.7,17.8c2.8,5.5,5.8,10.8,9,15.7c7.1,11.4,16.1,20.9,26.8,28.1c4.6,3.4,9.5,5.9,14.8,7.7c1.1,0.4,2.3,0.7,3.4,1.1l-7.5,5.7c-4.6,2.9-8.8,6.2-12.6,10c-5.1,5.1-9.7,10.6-13.6,16.2c-3.9,5.7-7.3,11.8-10,18c-0.1,0.3-0.3,0.6-0.4,0.9c-5.1,13.6-7.7,27.7-7.7,41.9c0,14.3,2.7,28.2,7.9,41.3c0.1,0.2,0.1,0.3,0.2,0.5c5.2,12.1,12.9,23.7,23,34.6c0.4,0.5,0.9,0.9,1.3,1.3c10,9.2,21.4,16.8,33.9,22.6c0.4,0.2,0.7,0.3,1.1,0.5c13.1,5.2,27.5,7.9,42.8,7.9c14.8,0,29.2-2.9,42.7-8.5c13.1-5.5,25-13.1,35.2-22.4c0.5-0.4,0.9-0.9,1.3-1.3c10-10.8,17.6-22.3,22.8-34.3c6.2-13.3,9.3-27.4,9.3-42.1c0-14.5-3.1-29-9.2-42.9c-2.7-6.2-6-12.2-9.9-17.9c-3.9-5.6-8.4-11.1-13.6-16.2c-4.5-4.5-9.2-8.4-14.2-12h268.8c0,0-0.1,0.1-0.1,0.1c-6.5,4.1-12.2,9.1-17,14.7c-9.8,10-17.5,21.1-22.6,32.9c-3.5,7.2-6,14.6-7.4,22c-1.3,6.9-2,13.9-2,20.9c0,15,3.1,29.3,9.3,42.6c5.2,12,12.9,23.5,22.8,34.3c0.2,0.2,0.4,0.4,0.6,0.7c8.9,8.8,20.2,16.4,33.8,22.3c13.3,6.2,28,9.3,43.7,9.3c15.5,0,30-3,43.2-9.1c13.8-5.3,25.7-12.9,35.4-22.6c0.2-0.2,0.4-0.4,0.6-0.6c9.8-10.6,17.7-21.8,23.5-33.4c0.2-0.4,0.4-0.8,0.5-1.1c2.8-6.4,4.9-13.6,6.2-21.2c1.3-7.2,1.9-14.3,1.9-21.2c0-14.6-2.7-28.7-7.9-41.8c-0.2-0.6-0.5-1.1-0.8-1.7c-5.9-11.8-13.9-22.8-23.7-32.7c-5.1-5.5-10.8-10.3-17.1-14.4h8.2c26.1,0,44.3-8,54.3-23.7c8.7-12.7,13.1-27.8,13.1-44.7c0-38.2-25.6-61.1-68.4-61.1l-458.1,0l-6.8-38.9h471.2c23.1,0,43.2-6.5,59.7-19.3c8.5-6.6,16.2-15.5,22.8-26.6c6-10,11.3-21.7,16-34.9c0-0.1,0.1-0.2,0.1-0.4c2.1-6.2,7.7-22.6,16.6-48.9L953,383c0-0.1,0-0.1,0.1-0.2l19.8-57.4l12.5-34.3c0.1-0.1,0.1-0.3,0.2-0.4c1.1-3.3,1.9-6.6,2.5-10c0.3-2.2,0.7-4.5,1.1-7.1c0.5-3.2,0.7-6.6,0.8-10.1c0.9-12.1-1.9-23.7-8.4-34.5C978,223.4,973.4,218.2,967.8,213.7z M807.1,833.7c0,4.2-0.4,8.7-1.2,13.4c-0.7,4-1.7,7.6-3,10.7c-3.8,7.5-9.1,14.9-15.7,22.1c-5.4,5.3-11.9,9.3-20,12.3c-0.5,0.2-1.1,0.4-1.6,0.7c-7.5,3.5-15.7,5.2-25,5.2s-17.5-1.7-25-5.2c-0.2-0.1-0.3-0.1-0.5-0.2c-8.4-3.7-15.1-8-20.1-12.8c-6.4-7-11.3-14.3-14.4-21.5c-0.1-0.2-0.2-0.4-0.3-0.6c-3.5-7.5-5.2-15.4-5.2-24c0-4.2,0.4-8.4,1.2-12.6c0.7-3.5,1.9-7.2,3.8-10.9c0.2-0.4,0.4-0.8,0.5-1.2c3-7.1,7.8-13.9,14.1-20.2c0.5-0.5,1-1,1.4-1.5c2-2.4,4.4-4.5,7.4-6.4c3.8-2.4,7.5-4.4,11.2-6c2.6-1,5.3-1.9,8.2-2.7c2.6-0.7,5.3-1.2,7.9-1.5c2.9-0.3,5.9-0.4,9.1-0.4l0.6,0c0.4,0,0.8,0,1.2,0c3.9,0.1,8,0.5,12.2,1.2c4.5,0.8,9,2,13.3,3.6c7.9,3,14.3,7.2,19.6,13c0.2,0.2,0.4,0.5,0.7,0.7c6.4,6.4,11.5,13.3,15.3,20.6C805.7,817,807.1,825,807.1,833.7z M407.5,855.5c-0.1,0.2-0.2,0.5-0.3,0.7c-3.1,7.1-7.8,14.3-14.1,21.2c-6.3,5.6-13.5,10.2-21.6,13.6c-8.1,3.4-16.4,5.1-25.3,5.1c-9.4,0-18-1.5-25.6-4.5c-7.8-3.7-15-8.5-21.3-14.2c-6.2-6.8-10.9-13.9-14-21c-3.1-7.8-4.6-15.8-4.6-24.3c0-8.6,1.6-17.2,4.7-25.6c1.5-3.4,3.3-6.6,5.5-9.8c2.3-3.4,5.2-6.7,8.4-10c1.5-1.5,3.2-2.8,5.1-4c0.7-0.4,1.3-0.8,1.9-1.3l7.4-5.5c1.7-1,3.4-1.9,5.1-2.6c3.1-0.8,6.1-1.8,9.2-2.9c1.2-0.4,2.3-0.7,3.3-0.9c2.6-0.3,5.5-0.7,8.4-1c2-0.2,4-0.3,5.7-0.4c0.3,0,0.6,0,0.9,0c9.1,0,17.8,1.6,26.4,4.8c7.6,3.1,14.3,7.6,20.5,13.8c3.2,3.2,6.1,6.6,8.4,10c2.3,3.3,4.2,6.7,5.7,10.2c0,0.1,0,0.1,0.1,0.2c3.7,8.4,5.4,16.5,5.4,25C412.7,840.4,411,848,407.5,855.5z M945.2,260.5c-0.1,0.7-0.1,1.4-0.1,2.1c0,1.7-0.1,3.2-0.3,4.6c-0.3,2.3-0.7,4.5-1,6.5c-0.1,0.8-0.3,1.6-0.6,2.5l-12.5,34.2c0,0.1-0.1,0.2-0.1,0.3l-19.9,57.4l-21.9,61.6c0,0.1-0.1,0.2-0.1,0.3c-8.9,26.2-14.6,42.7-16.7,49.1c-3.7,10.3-7.8,19.3-12.2,26.6c-3.8,6.3-7.7,11-11.8,14.2c-8.6,6.7-19.1,9.9-32.3,9.9H318c-6.6,0-12.9,2.9-17.1,8c-4.3,5.1-6.1,11.7-4.9,18.3l14.7,83.7c1.9,10.7,11.2,18.5,22,18.5h476.9c23.6,0,23.6,7.9,23.6,16.3c0,8-1.8,14.4-5.4,19.7c-0.2,0.3-0.4,0.6-0.6,0.9c-0.7,0.8-5.4,3-16.6,3H313.8c-2.8,0-5.5-0.2-8-0.7c-2.8-0.5-5.3-1.1-7.4-1.8c-0.8-0.3-1.6-0.7-2.4-1.3c-0.4-0.3-0.7-0.5-1.1-0.8c-5.7-3.8-10.4-8.7-14.3-15.1c-0.1-0.2-0.3-0.4-0.4-0.7c-2.3-3.4-4.4-7.2-6.4-11.2c-1.9-3.8-3.7-8-5.5-12.5c-3.2-12.2-5.4-21.5-6.7-27.8l-5.2-27.2L245.8,546l-13.6-72.2l-15.7-80.5l-40.8-210.2c-2-10.5-11.3-18.1-22-18.1H82.6c-6.5,0-8.9-1.3-9.5-1.7c-3.8-3-7.3-6.4-10.5-10c-1.4-3.7-2.9-7.1-4.5-10.4c-0.8-1.7-1.4-3.3-1.7-4.8c-0.6-2.8-1-5.7-1.3-8.4c-0.3-2.7-0.4-5.1-0.4-7.1c0-6,1.5-10.4,4.8-14.3c2.8-1.8,5.8-3.4,8.9-4.5c3-1.1,6.7-1.7,11-1.7h96.2c10.5,0,16.6,1.4,20,2.8c2.7,1.7,5.4,3.3,7.8,5c1.3,0.9,2.7,1.9,3.9,3.1c2.5,4.1,3.6,7,4,8.8c0.1,0.4,0.2,0.9,0.4,1.3l5,16c0.4,1.6,1.1,4.9,2.3,11.8v3.2c0,1.1,0.1,2.3,0.3,3.4l4.2,27.1l5.2,35.5c1.6,11,11,19.1,22.1,19.1h648.4c0.2,0,0.4,0,0.6,0c17.8,0.1,26.8,2.7,31.3,5c0.4,0.2,0.8,0.4,1.2,0.6c3,1.3,5.5,2.7,7.4,4.2c1.4,1.1,2.5,2.3,3.2,3.5C944.8,255,945.4,257.6,945.2,260.5z"/></g>
</svg>